<?xml version="1.0" standalone="no"?>
<!DOCTYPE svg PUBLIC "-//W3C//DTD SVG 20010904//EN"
 "http://www.w3.org/TR/2001/REC-SVG-20010904/DTD/svg10.dtd">
<svg version="1.0" xmlns="http://www.w3.org/2000/svg"
 width="80.000000pt" height="80.000000pt" viewBox="0 0 80.000000 80.000000"
 preserveAspectRatio="xMidYMid meet">

<g transform="translate(0.000000,80.000000) scale(0.100000,-0.100000)"
fill="#fff" stroke="none">
<path d="M225 671 c-49 -22 -99 -77 -115 -126 -18 -55 -7 -116 37 -203 47 -92
150 -252 163 -252 12 0 115 158 161 248 21 41 41 94 44 117 19 121 -81 235
-205 235 -25 0 -63 -9 -85 -19z m160 -20 c75 -34 125 -120 111 -193 -3 -18
-19 -61 -36 -96 -29 -63 -141 -242 -150 -242 -9 0 -121 179 -150 242 -38 80
-45 120 -31 169 23 77 103 139 181 139 19 0 53 -9 75 -19z"/>
<path d="M300 630 c0 -5 5 -10 10 -10 6 0 10 5 10 10 0 6 -4 10 -10 10 -5 0
-10 -4 -10 -10z"/>
<path d="M195 590 c-3 -5 -1 -10 4 -10 6 0 11 5 11 10 0 6 -2 10 -4 10 -3 0
-8 -4 -11 -10z"/>
<path d="M410 590 c0 -5 5 -10 11 -10 5 0 7 5 4 10 -3 6 -8 10 -11 10 -2 0 -4
-4 -4 -10z"/>
<path d="M270 520 c-11 -11 -20 -29 -20 -40 0 -26 34 -60 60 -60 26 0 60 34
60 60 0 11 -9 29 -20 40 -11 11 -29 20 -40 20 -11 0 -29 -9 -40 -20z m70 -15
c26 -32 -13 -81 -47 -59 -23 14 -28 41 -13 59 16 19 44 19 60 0z"/>
<path d="M150 480 c0 -5 5 -10 10 -10 6 0 10 5 10 10 0 6 -4 10 -10 10 -5 0
-10 -4 -10 -10z"/>
<path d="M450 480 c0 -5 5 -10 10 -10 6 0 10 5 10 10 0 6 -4 10 -10 10 -5 0
-10 -4 -10 -10z"/>
<path d="M570 593 c0 -4 26 -33 57 -65 l57 -58 -59 -60 c-32 -33 -56 -63 -52
-67 4 -4 38 23 75 60 l67 67 -65 65 c-60 61 -80 75 -80 58z"/>
</g>
</svg>
