<?xml version="1.0" standalone="no"?>
<!DOCTYPE svg PUBLIC "-//W3C//DTD SVG 20010904//EN"
 "http://www.w3.org/TR/2001/REC-SVG-20010904/DTD/svg10.dtd">
<svg version="1.0" xmlns="http://www.w3.org/2000/svg"
 width="80.000000pt" height="80.000000pt" viewBox="0 0 80.000000 80.000000"
 preserveAspectRatio="xMidYMid meet">

<g transform="translate(0.000000,80.000000) scale(0.100000,-0.100000)"
fill="#6A6180" stroke="none">
<path d="M363 747 c-10 -13 -43 -31 -75 -41 -74 -22 -156 -96 -195 -174 -24
-49 -28 -69 -28 -142 0 -73 4 -93 28 -142 35 -72 93 -130 165 -165 49 -24 69
-28 142 -28 73 0 93 4 142 28 72 35 130 93 165 165 24 49 28 69 28 142 0 73
-4 93 -28 142 -39 79 -121 152 -195 174 -31 10 -66 28 -77 41 -26 29 -48 29
-72 0z m52 -7 c3 -5 -3 -10 -15 -10 -12 0 -18 5 -15 10 3 6 10 10 15 10 5 0
12 -4 15 -10z m121 -62 c62 -29 123 -89 154 -153 19 -41 24 -66 24 -135 1 -78
-2 -90 -33 -148 -38 -70 -70 -100 -145 -140 -44 -22 -63 -26 -136 -26 -69 0
-94 4 -135 24 -64 31 -124 91 -155 155 -34 72 -34 198 0 270 42 86 123 152
215 176 51 14 158 2 211 -23z"/>
<path d="M303 672 c-251 -90 -272 -432 -35 -549 81 -40 183 -40 264 0 107 53
163 144 163 267 0 85 -21 142 -74 203 -72 81 -213 117 -318 79z m187 -18 c105
-31 190 -149 190 -264 0 -150 -130 -280 -280 -280 -150 0 -280 130 -280 280 0
149 126 277 276 279 22 1 64 -6 94 -15z"/>
<path d="M385 641 c-7 -12 12 -24 25 -16 11 7 4 25 -10 25 -5 0 -11 -4 -15 -9z"/>
<path d="M270 599 c0 -5 5 -7 10 -4 6 3 10 8 10 11 0 2 -4 4 -10 4 -5 0 -10
-5 -10 -11z"/>
<path d="M515 600 c3 -5 8 -10 11 -10 2 0 4 5 4 10 0 6 -5 10 -11 10 -5 0 -7
-4 -4 -10z"/>
<path d="M390 590 c0 -5 5 -10 10 -10 6 0 10 5 10 10 0 6 -4 10 -10 10 -5 0
-10 -4 -10 -10z"/>
<path d="M441 507 c-20 -46 -40 -76 -54 -82 -42 -19 -29 -75 17 -75 12 0 39
-17 61 -40 21 -21 42 -37 48 -33 5 3 -9 24 -31 47 -47 49 -58 92 -37 142 8 19
22 50 30 68 8 19 11 37 6 40 -5 3 -23 -27 -40 -67z m-25 -108 c10 -17 -13 -36
-27 -22 -12 12 -4 33 11 33 5 0 12 -5 16 -11z"/>
<path d="M145 400 c-4 -6 -3 -16 3 -22 6 -6 12 -6 17 2 4 6 3 16 -3 22 -6 6
-12 6 -17 -2z"/>
<path d="M635 400 c-4 -6 -3 -16 3 -22 6 -6 12 -6 17 2 4 6 3 16 -3 22 -6 6
-12 6 -17 -2z"/>
<path d="M190 390 c0 -5 5 -10 10 -10 6 0 10 5 10 10 0 6 -4 10 -10 10 -5 0
-10 -4 -10 -10z"/>
<path d="M590 390 c0 -5 5 -10 10 -10 6 0 10 5 10 10 0 6 -4 10 -10 10 -5 0
-10 -4 -10 -10z"/>
<path d="M180 270 c0 -5 5 -10 11 -10 5 0 7 5 4 10 -3 6 -8 10 -11 10 -2 0 -4
-4 -4 -10z"/>
<path d="M605 270 c-3 -5 -1 -10 4 -10 6 0 11 5 11 10 0 6 -2 10 -4 10 -3 0
-8 -4 -11 -10z"/>
<path d="M390 190 c0 -5 5 -10 10 -10 6 0 10 5 10 10 0 6 -4 10 -10 10 -5 0
-10 -4 -10 -10z"/>
<path d="M385 151 c-7 -12 12 -24 25 -16 11 7 4 25 -10 25 -5 0 -11 -4 -15 -9z"/>
</g>
</svg>
